# xmcd CD database file
#
# Track frame offsets:
#	150
#	13165
#	24771
#	89736
#	102646
#	115574
#	142345
#	155326
#	167804
#	182462
#	197752
#	208798
#	218871
#	231318
#	252029
#	263775
#
# Disc length: 3685 seconds
#
# Revision: 0
# Processed by: cddbd v1.5.2PL0 Copyright (c) Steve Scherf et al.
# Submitted via: CDex 1.51
#
DISCID=e20e6310
DTITLE=Various Artist - Jazz - The Essential Collection disc 15
DYEAR=1900
DGENRE=Jazz
TTITLE0=Julie London - Cry Me A River
TTITLE1=Sarah Vaughan - These Things I Offer You (For A Lifetime)
TTITLE2=Art Farmer and Donald Byrd - Dig
TTITLE3=The Best From The West (Shorty Rogers, Pete Rugolo, John Graas, Marty Paich and Buddy Collette directed by Leonard Feather) - Van Nuys Indeed!
TTITLE4=Charlie Parker (feat. Sarah Vaughan) - Mean To Me
TTITLE5=Art Blakey Quintet - Mayreh
TTITLE6=Eartha Kitt - Jonny
TTITLE7=Blue Stars Of France - Lullaby Of Birdland
TTITLE8=Bunk Johnson and The Yerba Buena Jazz Band - 2_19 Blues
TTITLE9=Louis Armstong - (When I Dance With You) I Get Ideas
TTITLE10=Ella Fitzgerald - Pete Kelly's Blues
TTITLE11=Chet Baker Quartet - Long Ago and Far Away
TTITLE12=Earl Bostic - Earl Blows A Fuse
TTITLE13=Erroll Garner - Cocktails For Two
TTITLE14=Dave Brubeck - Let's Fall In Love
TTITLE15=Benny Carter - I Wanna Go Home
EXTD=
EXTT0=
EXTT1=
EXTT2=
EXTT3=
EXTT4=
EXTT5=
EXTT6=
EXTT7=
EXTT8=
EXTT9=
EXTT10=
EXTT11=
EXTT12=
EXTT13=
EXTT14=
EXTT15=
PLAYORDER=
